<svg width="48" height="48" viewBox="0 0 48 48" fill="none" xmlns="http://www.w3.org/2000/svg">
<path d="M27.3606 0C26.2632 0 25.3268 0.384528 24.5509 1.15416C23.7753 1.92394 23.3884 2.85139 23.3884 3.93595C23.3884 4.98552 23.7751 5.89426 24.5509 6.66384C25.3268 7.43362 26.2632 7.81934 27.3606 7.81934C28.4203 7.81934 29.3378 7.43362 30.1136 6.66384C30.8894 5.89426 31.2776 4.98552 31.2776 3.93595C31.2776 2.85134 30.8895 1.92394 30.1136 1.15416C29.3379 0.384576 28.4203 0 27.3606 0ZM35.8708 7.50456C35.9841 8.09933 36.041 8.88562 36.041 9.86525V11.9111H33.2605V17.0011C34.0552 16.8961 34.698 16.8453 35.1899 16.8453L36.0412 16.8963V17.0012H35.9845V26.3943C35.9845 29.3333 36.3832 31.4851 37.1778 32.8497C38.2375 34.6687 40.1483 35.5776 42.9107 35.5776C44.8785 35.5776 46.5624 35.2284 47.9626 34.5283V29.2809C47.0162 29.8758 45.9564 30.1726 44.7833 30.1726C43.1183 30.1726 42.2866 29.0004 42.2866 26.6564V16.8961H44.7267C45.1809 16.8961 45.6637 16.9136 46.1746 16.9485C46.6855 16.9835 47.0345 17.0008 47.2236 17.0008V11.9109H42.2868V9.76003C42.2868 8.92051 42.3437 8.16912 42.457 7.50427H35.8714L35.8709 7.50446L35.8708 7.50456ZM9.87665 11.6489C7.3034 11.6489 5.09033 12.4367 3.23588 14.0109C1.30615 15.6901 0.340297 17.7885 0.340297 20.3074C0.340297 21.9866 0.869589 23.561 1.92911 25.0302C2.87513 26.3944 3.95433 27.2698 5.16525 27.6547V27.7596C3.95433 28.2489 3.34944 29.4742 3.34944 31.4331C3.34944 32.9376 3.99223 34.0559 5.2788 34.7905V34.8954C1.75974 35.9798 0 37.9912 0 40.9296C0 43.4837 1.17338 45.3563 3.51984 46.5456C5.37377 47.4903 7.73861 47.9621 10.6145 47.9621C17.6152 47.9621 21.1157 45.2507 21.1157 39.828C21.1157 36.4348 18.4096 34.3534 12.9979 33.5839C11.7493 33.4091 10.804 32.9898 10.1607 32.325C9.6687 31.8704 9.4229 31.4144 9.4229 30.9596C9.4229 29.6652 10.1794 28.9139 11.6926 28.7038C14.001 28.3893 15.8841 27.4008 17.3412 25.7392C18.7981 24.0773 19.5267 22.1267 19.5267 19.8878C19.5267 19.1881 19.3754 18.4365 19.0728 17.632C20.0569 17.422 20.8127 17.2298 21.3425 17.055V11.6487C18.9582 12.4884 16.8585 12.9091 15.0423 12.9091C13.4527 12.0696 11.7311 11.6487 9.87675 11.6487V11.6489H9.87665ZM24.1261 11.9112C24.2017 12.5408 24.2396 13.6785 24.2396 15.3224V31.643C24.2396 33.3224 24.2017 34.5108 24.1261 35.2102H30.5399C30.4641 34.4057 30.4264 33.1111 30.4264 31.3268V15.2174C30.4264 13.6782 30.4641 12.5758 30.5399 11.9111H24.1261V11.9112ZM10.1037 16.4766C11.239 16.4766 12.1274 16.8802 12.7707 17.6846C13.3004 18.4196 13.5651 19.2931 13.5651 20.3076C13.5651 22.7564 12.412 23.9811 10.1037 23.9811C7.71986 23.9811 6.52716 22.7739 6.52716 20.36C6.52716 17.7714 7.71986 16.4766 10.1037 16.4766ZM10.5009 37.8348C13.6798 37.8348 15.2692 38.726 15.2692 40.5101C15.2692 42.3993 13.8121 43.3443 10.8983 43.3443C7.5683 43.3443 5.90317 42.4339 5.90317 40.6149C5.90317 38.7607 7.43585 37.8346 10.5011 37.8346L10.5009 37.8348Z" fill="#623CEA"/>
</svg>
