<svg width="31" height="31" viewBox="0 0 31 31" fill="none" xmlns="http://www.w3.org/2000/svg">
<g filter="url(#filter0_b_6_3544)">
<path d="M5.18154 30.2298C5.00556 30.2298 4.83054 30.2204 4.66134 30.2019C4.30456 30.1617 3.99828 29.9165 3.88104 29.5773C3.76379 29.2381 3.85281 28.8559 4.10784 28.6035L5.41554 27.2724C5.50623 27.1835 5.55773 27.0605 5.55684 26.9349C5.55593 26.8107 5.50767 26.6941 5.42094 26.6064L4.09434 25.2798C4.00627 25.1917 3.88489 25.1412 3.76134 25.1412C3.63779 25.1412 3.51641 25.1917 3.42834 25.2798L2.12514 26.6109C1.95032 26.7882 1.70743 26.8899 1.45874 26.8899C1.35203 26.8899 1.24679 26.8717 1.14594 26.8359C0.810008 26.7198 0.565188 26.4163 0.522238 26.0628C0.456298 25.4874 0.498998 24.9118 0.649138 24.3519C1.09658 22.7334 2.38256 21.4619 4.00524 21.0336C4.39278 20.9303 4.79273 20.8779 5.19399 20.8779C5.52017 20.8779 5.84725 20.9127 6.16614 20.9814C6.19664 20.9875 6.2278 20.9906 6.25874 20.9906C6.38262 20.9906 6.49964 20.9426 6.58824 20.8554L12.8405 14.5689L5.17704 6.90001L3.93954 6.65701C3.6652 6.60288 3.41561 6.46968 3.21774 6.27181L0.770638 3.82111C0.593628 3.6441 0.496138 3.40854 0.496138 3.15781C0.496138 2.90618 0.593628 2.67062 0.770638 2.49452L2.75784 0.506424C2.93576 0.329414 3.17132 0.231924 3.42114 0.231924C3.67187 0.231924 3.90743 0.329414 4.08444 0.506424L6.53604 2.95802C6.73407 3.15605 6.86696 3.40564 6.92034 3.67981L7.16424 4.91732L14.8331 12.5772L21.1187 6.32401C21.2251 6.20508 21.2638 6.04188 21.2222 5.88751C21.0687 5.17734 21.0865 4.432 21.2735 3.73202C21.8127 1.6695 23.6762 0.229004 25.8052 0.229004C25.9785 0.229004 26.154 0.238764 26.327 0.258024C26.6817 0.298824 26.9779 0.532294 27.1001 0.867324C27.2202 1.20597 27.1336 1.58891 26.8796 1.84292L25.5719 3.17402C25.4818 3.26235 25.4306 3.38535 25.4315 3.51151C25.428 3.63805 25.4775 3.76269 25.5674 3.85352L26.8796 5.18011C26.9681 5.26949 27.0864 5.31871 27.2126 5.31871C27.3389 5.31871 27.4572 5.26949 27.5456 5.18011L28.8488 3.84901C29.0241 3.66881 29.2688 3.56546 29.5204 3.56546C29.6237 3.56546 29.7257 3.58244 29.8235 3.61592C30.1649 3.73239 30.4114 4.03902 30.4517 4.39711C30.5176 4.97172 30.4752 5.54735 30.3257 6.10801C29.8871 7.73241 28.6063 9.01322 26.9831 9.45062C26.5953 9.55337 26.1956 9.60548 25.7952 9.6055C25.4687 9.6055 25.1413 9.57065 24.8222 9.50191C24.7921 9.49588 24.7612 9.49282 24.7304 9.49282C24.6059 9.49282 24.4886 9.54112 24.4001 9.62881L18.1937 15.8955L18.5267 16.233C18.7884 15.9705 19.152 15.8199 19.523 15.8199C19.8946 15.8199 20.2577 15.9705 20.5193 16.233L21.1799 16.8945C21.2201 16.9347 21.2516 16.9804 21.2735 17.0304V17.0673V17.1096L21.7424 19.0131C21.9638 18.8835 22.2164 18.8154 22.4714 18.8154C22.8419 18.8154 23.1941 18.9553 23.4632 19.2093L30.0818 25.8423C30.6291 26.3904 30.6291 27.2823 30.0818 27.8304L28.0937 29.8176C27.8282 30.0827 27.4754 30.2287 27.1001 30.2287C26.7249 30.2287 26.3721 30.0827 26.1065 29.8176L19.4735 23.199C18.9867 22.732 18.9 21.9829 19.2674 21.4179L17.3693 20.949L17.327 20.949H17.2892C17.2383 20.9254 17.1927 20.8939 17.1533 20.8554L16.4927 20.2083C16.2296 19.9461 16.0787 19.583 16.0787 19.212C16.0787 18.8411 16.2296 18.4779 16.4927 18.2157L16.1552 17.8836L9.86874 24.1359C9.76238 24.2559 9.72401 24.4191 9.76614 24.5724C9.91912 25.281 9.90138 26.0266 9.71484 26.7288C9.17522 28.7893 7.31106 30.2289 5.18154 30.2298ZM22.4564 19.7384C22.3341 19.7384 22.214 19.789 22.1267 19.8753L20.1395 21.8625C20.051 21.952 20.0027 22.0702 20.0036 22.1955C20.0036 22.3188 20.0519 22.4355 20.1395 22.524L26.7671 29.157C26.8559 29.2449 26.9735 29.2934 27.0982 29.2934C27.2229 29.2934 27.3403 29.2449 27.4286 29.157L29.4203 27.1644C29.508 27.0768 29.5562 26.9601 29.5562 26.8359C29.5571 26.7121 29.5076 26.5911 29.4203 26.5038L22.7882 19.8753C22.7006 19.7886 22.5839 19.7403 22.4597 19.7394L22.4564 19.7384ZM3.75864 24.1917C4.13563 24.1917 4.48945 24.3384 4.75494 24.6048L6.08154 25.9269C6.62852 26.4748 6.62852 27.3663 6.08154 27.9141L4.77384 29.2506C4.91198 29.2675 5.05706 29.2769 5.20448 29.2769C5.51996 29.2769 5.83412 29.2347 6.13824 29.1516C7.43699 28.8027 8.46053 27.7792 8.80944 26.4804C8.9548 25.9223 8.96787 25.3307 8.84724 24.7695C8.7497 24.3044 8.89168 23.826 9.22704 23.4897L15.4937 17.2176L13.5065 15.2304L7.25334 21.4971C6.98784 21.7619 6.63545 21.9077 6.26108 21.9077C6.16322 21.9077 6.06496 21.8974 5.96904 21.8769C5.71186 21.8212 5.44804 21.793 5.18492 21.793C4.8673 21.793 4.55064 21.834 4.24374 21.9147C2.93354 22.264 1.90447 23.2948 1.55814 24.6048C1.43981 25.0465 1.40499 25.5007 1.45464 25.9548L2.76324 24.6048C3.02873 24.3384 3.38223 24.1917 3.75864 24.1917ZM20.5517 18.141L18.4241 20.2695L20.0126 20.6673L20.9504 19.7304L20.5517 18.141ZM19.4735 16.7532C19.3499 16.7541 19.2336 16.8024 19.1459 16.8891L17.1533 18.8817C16.9721 19.0638 16.9721 19.3602 17.1533 19.5423L17.4863 19.8753L20.1395 17.2221L19.8065 16.8891C19.718 16.8015 19.5997 16.7532 19.4735 16.7532ZM6.73764 5.8083L6.07704 6.46891L17.1533 17.574L17.8382 16.8891L6.73764 5.8083ZM25.8015 1.16955C25.4864 1.16955 25.1726 1.21139 24.869 1.29391C23.5574 1.64068 22.5263 2.67009 22.178 3.98041C22.033 4.53639 22.0202 5.12801 22.1411 5.69131C22.2379 6.15627 22.0959 6.6347 21.7613 6.97111L15.4937 13.2423L17.4818 15.2304L23.7485 8.94392C24.0106 8.68326 24.3728 8.53376 24.7424 8.53376C24.8398 8.53376 24.9375 8.54398 25.0328 8.56412C25.2909 8.62118 25.5557 8.65011 25.82 8.65011C26.1368 8.65011 26.4524 8.60877 26.7581 8.52722C28.0566 8.17748 29.0805 7.15359 29.4302 5.85512C29.5571 5.41209 29.5995 4.95637 29.5562 4.50061L28.2251 5.85511C27.9591 6.12208 27.6053 6.26911 27.2288 6.26911C26.8585 6.26911 26.4956 6.11821 26.2334 5.85511L24.9068 4.51951C24.6399 4.25255 24.4928 3.89872 24.4928 3.52321C24.4928 3.1468 24.6399 2.79298 24.9068 2.52691L26.2334 1.19582C26.0949 1.17896 25.9494 1.16955 25.8015 1.16955ZM3.88278 5.60666C3.94791 5.6736 4.03076 5.71909 4.12224 5.73811L5.25624 5.96311L6.22734 4.99291L6.00234 3.85801C5.98234 3.76617 5.9369 3.68369 5.87094 3.61951L4.58124 2.32531L2.58954 4.31791L3.88824 5.60671L3.88278 5.60666ZM3.41934 1.16791L1.43124 3.15512L2.26104 3.98042L4.24374 1.99681L3.41934 1.16791Z" fill="#1E79F7"/>
</g>
<g filter="url(#filter1_b_6_3544)">
<path d="M21.2974 22.027C21.2062 21.9376 21.0604 21.9376 20.9692 22.027C20.9249 22.071 20.8999 22.1309 20.8999 22.1934C20.8999 22.2559 20.9249 22.3158 20.9692 22.3598L26.9317 28.327C26.9764 28.3718 27.0371 28.3971 27.1005 28.3973C27.1624 28.3969 27.2216 28.3716 27.2645 28.327C27.3089 28.283 27.3339 28.223 27.3339 28.1606C27.3339 28.0981 27.3089 28.0382 27.2645 27.9941L21.2974 22.027Z" fill="#1E79F7"/>
</g>
<g filter="url(#filter2_b_6_3544)">
<path d="M21.9628 21.3658C21.8709 21.2739 21.7219 21.2739 21.63 21.3658C21.5381 21.4577 21.5381 21.6067 21.63 21.6986L27.5972 27.6611C27.6401 27.7057 27.6993 27.7311 27.7612 27.7314C27.8234 27.7322 27.883 27.7066 27.9253 27.6611C27.9706 27.6186 27.9963 27.5592 27.9963 27.4971C27.9963 27.4349 27.9706 27.3755 27.9253 27.333L21.9628 21.3658Z" fill="#1E79F7"/>
</g>
<g filter="url(#filter3_b_6_3544)">
<path d="M22.6239 20.7051C22.5799 20.6607 22.52 20.6357 22.4575 20.6357C22.395 20.6357 22.3351 20.6607 22.2911 20.7051C22.2018 20.7962 22.2018 20.9421 22.2911 21.0332L28.2583 27.0004C28.303 27.0453 28.3637 27.0705 28.4271 27.0707C28.4889 27.0698 28.5478 27.0445 28.5911 27.0004C28.681 26.9077 28.681 26.7603 28.5911 26.6676L22.6239 20.7051Z" fill="#1E79F7"/>
</g>
<defs>
<filter id="filter0_b_6_3544" x="-9.50781" y="-9.771" width="50" height="50.0009" filterUnits="userSpaceOnUse" color-interpolation-filters="sRGB">
<feFlood flood-opacity="0" result="BackgroundImageFix"/>
<feGaussianBlur in="BackgroundImageFix" stdDeviation="5"/>
<feComposite in2="SourceAlpha" operator="in" result="effect1_backgroundBlur_6_3544"/>
<feBlend mode="normal" in="SourceGraphic" in2="effect1_backgroundBlur_6_3544" result="shape"/>
</filter>
<filter id="filter1_b_6_3544" x="10.8999" y="11.96" width="26.4341" height="26.4373" filterUnits="userSpaceOnUse" color-interpolation-filters="sRGB">
<feFlood flood-opacity="0" result="BackgroundImageFix"/>
<feGaussianBlur in="BackgroundImageFix" stdDeviation="5"/>
<feComposite in2="SourceAlpha" operator="in" result="effect1_backgroundBlur_6_3544"/>
<feBlend mode="normal" in="SourceGraphic" in2="effect1_backgroundBlur_6_3544" result="shape"/>
</filter>
<filter id="filter2_b_6_3544" x="11.561" y="11.2969" width="26.4351" height="26.4346" filterUnits="userSpaceOnUse" color-interpolation-filters="sRGB">
<feFlood flood-opacity="0" result="BackgroundImageFix"/>
<feGaussianBlur in="BackgroundImageFix" stdDeviation="5"/>
<feComposite in2="SourceAlpha" operator="in" result="effect1_backgroundBlur_6_3544"/>
<feBlend mode="normal" in="SourceGraphic" in2="effect1_backgroundBlur_6_3544" result="shape"/>
</filter>
<filter id="filter3_b_6_3544" x="12.2241" y="10.6357" width="26.4346" height="26.4349" filterUnits="userSpaceOnUse" color-interpolation-filters="sRGB">
<feFlood flood-opacity="0" result="BackgroundImageFix"/>
<feGaussianBlur in="BackgroundImageFix" stdDeviation="5"/>
<feComposite in2="SourceAlpha" operator="in" result="effect1_backgroundBlur_6_3544"/>
<feBlend mode="normal" in="SourceGraphic" in2="effect1_backgroundBlur_6_3544" result="shape"/>
</filter>
</defs>
</svg>
