<svg width="31" height="31" viewBox="0 0 31 31" fill="none" xmlns="http://www.w3.org/2000/svg">
<g filter="url(#filter0_b_6_3549)">
<path d="M25.3552 30.8003C23.7011 30.8003 22.3555 29.5027 22.3555 27.9077C22.3555 26.3674 25.1176 22.9034 25.1455 22.8686C25.1936 22.8077 25.2737 22.7714 25.3596 22.7714C25.4454 22.7714 25.5222 22.8077 25.5649 22.8686C25.5927 22.9026 28.3558 26.3696 28.3558 27.9077C28.3558 29.5027 27.0097 30.8003 25.3552 30.8003ZM25.3606 23.4599C25.1085 23.7879 22.8982 26.7001 22.8982 27.9077C22.8982 29.2168 24.0028 30.2819 25.3606 30.2819C26.7183 30.2819 27.823 29.2168 27.823 27.9077C27.823 26.7401 25.7718 23.9977 25.3606 23.4599Z" fill="#1E79F7"/>
<path d="M25.3552 30.8003C23.7011 30.8003 22.3555 29.5027 22.3555 27.9077C22.3555 26.3674 25.1176 22.9034 25.1455 22.8686C25.1936 22.8077 25.2737 22.7714 25.3596 22.7714C25.4454 22.7714 25.5222 22.8077 25.5649 22.8686C25.5927 22.9026 28.3558 26.3696 28.3558 27.9077C28.3558 29.5027 27.0097 30.8003 25.3552 30.8003ZM25.3606 23.4599C25.1085 23.7879 22.8982 26.7001 22.8982 27.9077C22.8982 29.2168 24.0028 30.2819 25.3606 30.2819C26.7183 30.2819 27.823 29.2168 27.823 27.9077C27.823 26.7401 25.7718 23.9977 25.3606 23.4599Z" stroke="#1E79F7" stroke-width="0.4"/>
</g>
<g filter="url(#filter1_b_6_3549)">
<path d="M28.8986 23.0831H21.8282C21.0014 23.0831 20.3288 22.4343 20.3288 21.6368C20.3288 20.8393 21.0014 20.1905 21.8282 20.1905H22.0595V18.422C22.0595 17.3873 21.1866 16.5455 20.1137 16.5455H18.6989V16.7786C18.6989 17.5562 18.0432 18.1889 17.2373 18.1889H9.4739C8.66747 18.1889 8.0114 17.5562 8.0114 16.7786V16.5455H4.6508V17.5148C4.6508 18.9073 3.47633 20.0402 2.0327 20.0402H0.860897C0.709997 20.0402 0.591797 19.9263 0.591797 19.781V6.35837C0.591797 6.21302 0.709997 6.09917 0.860897 6.09917H2.0327C3.47633 6.09917 4.6508 7.23166 4.6508 8.62367V9.59297H8.0114V9.35987C8.0114 8.58223 8.66747 7.94957 9.4739 7.94957H12.1505V5.30627C12.0655 5.25066 11.9937 5.18919 11.9178 5.12411L11.8877 5.09837C11.7415 5.14 11.6182 5.18111 11.5007 5.22797C10.1448 5.76514 9.24422 6.02627 8.7476 6.02627C7.27718 6.02627 6.0809 4.87279 6.0809 3.45497C6.0809 2.03715 7.27718 0.883667 8.7476 0.883667C9.24422 0.883667 10.1448 1.1448 11.5007 1.68197C11.6258 1.72747 11.75 1.76758 11.8877 1.81157C12.3229 1.43033 12.8768 1.22027 13.4465 1.22027C14.091 1.22027 14.6925 1.47629 15.1403 1.94117C15.4797 1.86495 15.7632 1.78026 16.0061 1.68197C17.3994 1.13733 18.2756 0.883667 18.7637 0.883667C20.2341 0.883667 21.4304 2.03715 21.4304 3.45497C21.4304 4.87279 20.2341 6.02627 18.7637 6.02627C18.2685 6.02627 17.3665 5.76514 16.0061 5.22797C15.7302 5.12184 15.4389 5.03463 15.1403 4.96877C15.0897 5.01765 15.0343 5.07051 14.9792 5.11907V7.95497H17.2319C18.0378 7.95497 18.6935 8.58763 18.6935 9.36527V9.59837H20.7743C25.26 9.59837 28.9094 13.1173 28.9094 17.4428V20.1905C29.7298 20.195 30.398 20.8442 30.398 21.6368C30.398 22.4343 29.7254 23.0831 28.8986 23.0831ZM21.8282 20.7089C21.2977 20.7089 20.8661 21.1251 20.8661 21.6368C20.8661 22.1484 21.2977 22.5647 21.8282 22.5647H28.8986C29.4291 22.5647 29.8607 22.1484 29.8607 21.6368C29.8607 21.1251 29.4291 20.7089 28.8986 20.7089H21.8282ZM18.6935 10.1114V16.0217H20.1083C21.4775 16.0217 22.5914 17.0964 22.5914 18.4175V20.1851H28.3712V17.4374C28.3712 13.3978 24.9632 10.1114 20.7743 10.1114H18.6935ZM1.1291 6.61757V19.5164H2.0327C3.18006 19.5164 4.1135 18.6164 4.1135 17.5103V8.62367C4.1135 7.5175 3.18006 6.61757 2.0327 6.61757H1.1291ZM9.4739 8.46797C8.96374 8.46797 8.5487 8.86807 8.5487 9.35987V16.7741C8.5487 17.2654 8.96374 17.6651 9.4739 17.6651H17.2373C17.747 17.6651 18.1616 17.2654 18.1616 16.7741V9.35987C18.1616 8.86807 17.747 8.46797 17.2373 8.46797H9.4739ZM4.6508 10.1114V16.0217H8.0114V10.1114H4.6508ZM12.6887 5.55467V7.94957H14.441V5.46107C14.1276 5.61306 13.7925 5.68967 13.4465 5.68967C13.1963 5.68967 12.9484 5.64551 12.6887 5.55467ZM18.7637 1.40207C18.481 1.40207 17.8086 1.53432 16.2104 2.16437C16.0097 2.24482 15.7823 2.31671 15.4733 2.39747C15.6664 2.74152 15.764 3.09781 15.764 3.45497C15.764 3.813 15.6662 4.16879 15.4733 4.51247C15.7027 4.57362 15.9683 4.64854 16.2104 4.74557C17.8003 5.37562 18.4764 5.50787 18.7637 5.50787C19.9379 5.50787 20.8931 4.58694 20.8931 3.45497C20.8931 2.323 19.9379 1.40207 18.7637 1.40207ZM8.7476 1.40207C7.57394 1.40207 6.6191 2.323 6.6191 3.45497C6.6191 4.58694 7.57394 5.50787 8.7476 5.50787C9.03528 5.50787 9.71099 5.37562 11.2964 4.74557C11.3292 4.73363 11.3635 4.72271 11.3979 4.71174C11.4367 4.69937 11.4748 4.68721 11.5115 4.67357C11.2611 4.31427 11.129 3.89237 11.129 3.45497C11.129 3.03073 11.2613 2.60934 11.5115 2.23637C11.4794 2.22485 11.4457 2.21411 11.4131 2.20373C11.3736 2.19115 11.3341 2.17855 11.2964 2.16437C9.71098 1.53432 9.03528 1.40207 8.7476 1.40207ZM13.4568 1.74944L13.4465 1.74947C12.9652 1.74947 12.4967 1.944 12.1613 2.28317L12.1559 2.28857C11.8408 2.60937 11.6672 3.02553 11.6672 3.46037C11.6672 3.89514 11.8427 4.31322 12.1613 4.63757C12.4977 4.97674 12.9661 5.17127 13.4465 5.17127C14.4276 5.17127 15.2258 4.40134 15.2258 3.45497C15.2258 2.99994 15.0421 2.57191 14.7084 2.24972C14.3743 1.9271 13.9298 1.74943 13.4568 1.74944Z" fill="#1E79F7"/>
<path d="M28.8986 23.0831H21.8282C21.0014 23.0831 20.3288 22.4343 20.3288 21.6368C20.3288 20.8393 21.0014 20.1905 21.8282 20.1905H22.0595V18.422C22.0595 17.3873 21.1866 16.5455 20.1137 16.5455H18.6989V16.7786C18.6989 17.5562 18.0432 18.1889 17.2373 18.1889H9.4739C8.66747 18.1889 8.0114 17.5562 8.0114 16.7786V16.5455H4.6508V17.5148C4.6508 18.9073 3.47633 20.0402 2.0327 20.0402H0.860897C0.709997 20.0402 0.591797 19.9263 0.591797 19.781V6.35837C0.591797 6.21302 0.709997 6.09917 0.860897 6.09917H2.0327C3.47633 6.09917 4.6508 7.23166 4.6508 8.62367V9.59297H8.0114V9.35987C8.0114 8.58223 8.66747 7.94957 9.4739 7.94957H12.1505V5.30627C12.0655 5.25066 11.9937 5.18919 11.9178 5.12411L11.8877 5.09837C11.7415 5.14 11.6182 5.18111 11.5007 5.22797C10.1448 5.76514 9.24422 6.02627 8.7476 6.02627C7.27718 6.02627 6.0809 4.87279 6.0809 3.45497C6.0809 2.03715 7.27718 0.883667 8.7476 0.883667C9.24422 0.883667 10.1448 1.1448 11.5007 1.68197C11.6258 1.72747 11.75 1.76758 11.8877 1.81157C12.3229 1.43033 12.8768 1.22027 13.4465 1.22027C14.091 1.22027 14.6925 1.47629 15.1403 1.94117C15.4797 1.86495 15.7632 1.78026 16.0061 1.68197C17.3994 1.13733 18.2756 0.883667 18.7637 0.883667C20.2341 0.883667 21.4304 2.03715 21.4304 3.45497C21.4304 4.87279 20.2341 6.02627 18.7637 6.02627C18.2685 6.02627 17.3665 5.76514 16.0061 5.22797C15.7302 5.12184 15.4389 5.03463 15.1403 4.96877C15.0897 5.01765 15.0343 5.07051 14.9792 5.11907V7.95497H17.2319C18.0378 7.95497 18.6935 8.58763 18.6935 9.36527V9.59837H20.7743C25.26 9.59837 28.9094 13.1173 28.9094 17.4428V20.1905C29.7298 20.195 30.398 20.8442 30.398 21.6368C30.398 22.4343 29.7254 23.0831 28.8986 23.0831ZM21.8282 20.7089C21.2977 20.7089 20.8661 21.1251 20.8661 21.6368C20.8661 22.1484 21.2977 22.5647 21.8282 22.5647H28.8986C29.4291 22.5647 29.8607 22.1484 29.8607 21.6368C29.8607 21.1251 29.4291 20.7089 28.8986 20.7089H21.8282ZM18.6935 10.1114V16.0217H20.1083C21.4775 16.0217 22.5914 17.0964 22.5914 18.4175V20.1851H28.3712V17.4374C28.3712 13.3978 24.9632 10.1114 20.7743 10.1114H18.6935ZM1.1291 6.61757V19.5164H2.0327C3.18006 19.5164 4.1135 18.6164 4.1135 17.5103V8.62367C4.1135 7.5175 3.18006 6.61757 2.0327 6.61757H1.1291ZM9.4739 8.46797C8.96374 8.46797 8.5487 8.86807 8.5487 9.35987V16.7741C8.5487 17.2654 8.96374 17.6651 9.4739 17.6651H17.2373C17.747 17.6651 18.1616 17.2654 18.1616 16.7741V9.35987C18.1616 8.86807 17.747 8.46797 17.2373 8.46797H9.4739ZM4.6508 10.1114V16.0217H8.0114V10.1114H4.6508ZM12.6887 5.55467V7.94957H14.441V5.46107C14.1276 5.61306 13.7925 5.68967 13.4465 5.68967C13.1963 5.68967 12.9484 5.64551 12.6887 5.55467ZM18.7637 1.40207C18.481 1.40207 17.8086 1.53432 16.2104 2.16437C16.0097 2.24482 15.7823 2.31671 15.4733 2.39747C15.6664 2.74152 15.764 3.09781 15.764 3.45497C15.764 3.813 15.6662 4.16879 15.4733 4.51247C15.7027 4.57362 15.9683 4.64854 16.2104 4.74557C17.8003 5.37562 18.4764 5.50787 18.7637 5.50787C19.9379 5.50787 20.8931 4.58694 20.8931 3.45497C20.8931 2.323 19.9379 1.40207 18.7637 1.40207ZM8.7476 1.40207C7.57394 1.40207 6.6191 2.323 6.6191 3.45497C6.6191 4.58694 7.57394 5.50787 8.7476 5.50787C9.03528 5.50787 9.71099 5.37562 11.2964 4.74557C11.3292 4.73363 11.3635 4.72271 11.3979 4.71174C11.4367 4.69937 11.4748 4.68721 11.5115 4.67357C11.2611 4.31427 11.129 3.89237 11.129 3.45497C11.129 3.03073 11.2613 2.60934 11.5115 2.23637C11.4794 2.22485 11.4457 2.21411 11.4131 2.20373C11.3736 2.19115 11.3341 2.17855 11.2964 2.16437C9.71098 1.53432 9.03528 1.40207 8.7476 1.40207ZM13.4568 1.74944L13.4465 1.74947C12.9652 1.74947 12.4967 1.944 12.1613 2.28317L12.1559 2.28857C11.8408 2.60937 11.6672 3.02553 11.6672 3.46037C11.6672 3.89514 11.8427 4.31322 12.1613 4.63757C12.4977 4.97674 12.9661 5.17127 13.4465 5.17127C14.4276 5.17127 15.2258 4.40134 15.2258 3.45497C15.2258 2.99994 15.0421 2.57191 14.7084 2.24972C14.3743 1.9271 13.9298 1.74943 13.4568 1.74944Z" stroke="#1E79F7" stroke-width="0.4"/>
</g>
<defs>
<filter id="filter0_b_6_3549" x="12.1553" y="12.5714" width="26.4004" height="28.4288" filterUnits="userSpaceOnUse" color-interpolation-filters="sRGB">
<feFlood flood-opacity="0" result="BackgroundImageFix"/>
<feGaussianBlur in="BackgroundImageFix" stdDeviation="5"/>
<feComposite in2="SourceAlpha" operator="in" result="effect1_backgroundBlur_6_3549"/>
<feBlend mode="normal" in="SourceGraphic" in2="effect1_backgroundBlur_6_3549" result="shape"/>
</filter>
<filter id="filter1_b_6_3549" x="-9.6084" y="-9.31628" width="50.2065" height="42.5994" filterUnits="userSpaceOnUse" color-interpolation-filters="sRGB">
<feFlood flood-opacity="0" result="BackgroundImageFix"/>
<feGaussianBlur in="BackgroundImageFix" stdDeviation="5"/>
<feComposite in2="SourceAlpha" operator="in" result="effect1_backgroundBlur_6_3549"/>
<feBlend mode="normal" in="SourceGraphic" in2="effect1_backgroundBlur_6_3549" result="shape"/>
</filter>
</defs>
</svg>
