<svg width="30" height="30" viewBox="0 0 30 30" fill="none" xmlns="http://www.w3.org/2000/svg">
<g filter="url(#filter0_b_6_3543)">
<path d="M9.153 29.3616C7.3017 29.3616 5.796 27.8298 5.796 25.9533C5.796 25.6023 5.5215 25.3215 5.1894 25.3215H2.3166C1.0404 25.3215 0 24.2748 0 22.9788C0 21.6891 1.0404 20.6361 2.3166 20.6361H6.7914C7.6464 20.6361 8.4447 20.9745 9.045 21.5874C9.6381 22.194 9.9639 22.9914 9.9702 23.8464H18.4212V22.5513C18.4212 21.1788 19.4805 20.0682 20.8152 19.998V19.6533C20.8152 18.5679 21.6891 17.6805 22.7682 17.6805H23.3235V0H24.5997V17.6742H25.155C26.2341 17.6742 27.1089 18.5553 27.1089 19.647V19.9917C28.4364 20.0682 29.502 21.1788 29.502 22.545V26.6166H28.2258V22.545C28.2258 21.8682 27.7146 21.3192 27.0639 21.2679V26.5464H25.7868V21.2553H24.606V26.5464H23.3298V21.2553H22.149V26.5536H20.8719V21.2742C20.2275 21.3192 19.7109 21.8745 19.7109 22.5513V26.6238H18.4338V25.1235H9.3447C8.9937 25.1235 8.7066 24.8364 8.7066 24.4854V23.8662C8.7066 23.3424 8.5086 22.851 8.145 22.4811C7.7868 22.1166 7.3089 21.9132 6.804 21.9132H2.3238C1.7487 21.9132 1.2834 22.3911 1.2834 22.9788C1.2834 23.5656 1.7487 24.0444 2.3238 24.0444H5.1957C6.2361 24.0444 7.0785 24.9003 7.0785 25.9533C7.0785 27.1278 8.0109 28.0854 9.1593 28.0854H29.3553V29.3616H9.153Z" fill="#1E79F7"/>
</g>
<defs>
<filter id="filter0_b_6_3543" x="-10" y="-10" width="49.502" height="49.3616" filterUnits="userSpaceOnUse" color-interpolation-filters="sRGB">
<feFlood flood-opacity="0" result="BackgroundImageFix"/>
<feGaussianBlur in="BackgroundImageFix" stdDeviation="5"/>
<feComposite in2="SourceAlpha" operator="in" result="effect1_backgroundBlur_6_3543"/>
<feBlend mode="normal" in="SourceGraphic" in2="effect1_backgroundBlur_6_3543" result="shape"/>
</filter>
</defs>
</svg>
