<svg width="48" height="48" viewBox="0 0 48 48" fill="none" xmlns="http://www.w3.org/2000/svg">
<path d="M26.6624 -1.30352e-05L12.0887 0.061667C5.92123 0.902435 0.637099 4.6904 0.170387 11.1527C0.0228414 11.746 0.0955971 12.3483 0.0747198 12.8994C0.00748621 15.7234 0.0236165 18.7616 0.0671633 21.6691C0.0787887 26.2571 -0.0579551 29.954 0.0292354 33.3649C0.0850858 43.3881 6.05648 48.0723 16.9 47.8772C19.5865 47.8289 22.6583 47.8115 26.1811 47.9028C29.6847 47.9262 32.3857 48.1549 34.7926 47.8155C45.4821 46.3082 47.5658 39.2038 47.9999 33.4522V26.8655C47.6879 20.1747 42.7923 18.3326 38.6065 18.1967C39.0564 16.5241 39.1645 14.2502 38.7704 11.1873C38.2632 5.23578 34.0006 0.582275 26.6624 -6.10352e-05V-1.30352e-05ZM14.4754 8.9878H26.3314C32.8865 9.85295 32.5778 16.8566 26.3314 17.8613H14.4754C7.92027 16.9961 8.22897 9.99244 14.4754 8.9878ZM11.7835 28.3701L33.5643 28.4438C40.1509 29.2856 40.1694 37.2312 33.7936 38.2034L12.0128 38.1282C5.2582 37.3052 5.35299 29.3507 11.7835 28.3701Z" fill="#623CEA"/>
</svg>
