<svg width="26" height="30" viewBox="0 0 26 30" fill="none" xmlns="http://www.w3.org/2000/svg">
<g filter="url(#filter0_b_6_3542)">
<path d="M20.7614 29.9513C20.6833 29.9513 20.6066 29.9319 20.5395 29.8953C20.4029 29.8202 20.3226 29.683 20.3298 29.5371V21.96L18.5388 21.3471L17.8494 26.1144C17.8207 26.3109 17.6365 26.4591 17.421 26.4591H8.08081C7.86529 26.4591 7.68112 26.3109 7.65241 26.1144L6.96301 21.3471L5.17291 21.96V29.5371C5.17291 29.7569 4.9779 29.9358 4.73821 29.9358C4.49901 29.9358 4.30441 29.7569 4.30441 29.5371V22.2561L3.12901 22.6584C2.08841 23.0152 1.35325 23.9722 1.25611 25.0965L0.861008 29.5704C0.841018 29.7766 0.656068 29.9322 0.430808 29.9322H0.395708C0.275738 29.9231 0.164588 29.8678 0.090678 29.7804C0.024148 29.7018 -0.00751198 29.6039 0.00150802 29.5047L0.395708 25.0308C0.520798 23.6017 1.47604 22.3787 2.82931 21.915L9.40381 19.6551C7.06157 18.5146 5.60492 16.2927 5.60221 13.8582V11.3949C4.77829 11.1806 4.13398 10.9183 3.68791 10.6164C3.47071 10.468 3.32638 10.2512 3.28152 10.0059C3.23846 9.77048 3.29201 9.53022 3.43231 9.32937C3.75594 8.85476 4.22712 8.4922 4.79491 8.28087C4.83655 7.72822 5.015 6.28363 5.75679 4.82769C6.67227 3.03081 8.10824 1.81835 10.0248 1.22397L9.96091 0.60027C9.93926 0.39012 10.1005 0.20155 10.3281 0.17097C10.5478 0.14242 11.7105 0 13.0241 0C13.868 0 14.5988 0.05904 15.1962 0.17547C15.411 0.21681 15.5572 0.39943 15.5364 0.60027L15.4734 1.22397C19.933 2.60672 20.6039 6.97501 20.7033 8.28087C21.2702 8.49218 21.7416 8.85504 22.0659 9.32937C22.2086 9.5309 22.2635 9.77251 22.2204 10.0097C22.1754 10.2572 22.0295 10.4755 21.8094 10.6245C21.3614 10.9274 20.7173 11.1893 19.8951 11.403V13.8663C19.8924 16.301 18.4357 18.5223 16.0935 19.6632L22.6707 21.9159C24.023 22.3777 24.9782 23.6008 25.1043 25.0317L25.4976 29.5047C25.5066 29.6039 25.475 29.7018 25.4084 29.7804C25.3345 29.8678 25.2233 29.9231 25.1034 29.9322H25.0683C24.8462 29.9322 24.6569 29.7733 24.6372 29.5704L24.243 25.0965C24.1449 23.9719 23.4091 23.0149 22.3683 22.6584L21.1938 22.2561V29.5371C21.2001 29.6831 21.1194 29.8204 20.9832 29.8953C20.9161 29.9319 20.8394 29.9513 20.7614 29.9513ZM10.5405 20.106C10.5137 20.1239 10.4819 20.1395 10.4433 20.1537L7.79011 21.0618L8.45521 25.6653H17.0394L17.7108 21.0618L15.0567 20.1537C15.0181 20.1395 14.9863 20.1238 14.9595 20.106C14.2445 20.3192 13.5007 20.4273 12.7497 20.4273C11.9982 20.4273 11.2549 20.3192 10.5405 20.106ZM6.46621 11.5902V13.8636C6.44016 15.9358 7.63579 17.8712 9.58651 18.9144C10.5456 19.427 11.6391 19.698 12.7487 19.698C13.8582 19.698 14.9517 19.427 15.9108 18.9144C17.8615 17.8712 19.0572 15.9358 19.0311 13.8636V11.5902C17.4901 11.8886 15.4843 12.0506 13.0704 12.0726C13.0619 12.0735 13.0535 12.0739 13.0452 12.0739C13.0369 12.0739 13.0286 12.0735 13.02 12.0726H12.4773C12.4692 12.0735 12.4609 12.0739 12.4526 12.0739C12.4442 12.0739 12.4359 12.0735 12.4278 12.0726C10.0112 12.0506 8.00538 11.8883 6.46621 11.5902ZM10.1067 2.03307C5.69434 3.53817 5.64361 8.36589 5.64361 8.57067C5.64361 8.75398 5.50816 8.91237 5.31421 8.95587C4.73444 9.08571 4.36431 9.46312 4.15591 9.75687C4.13147 9.79266 4.12255 9.83533 4.13082 9.87701C4.13912 9.91887 4.16401 9.95579 4.20091 9.98097C4.76398 10.3644 6.7241 11.2589 12.7491 11.2851C18.7654 11.2562 20.7307 10.3635 21.2964 9.98097C21.3334 9.95574 21.3584 9.91898 21.3669 9.87747C21.3754 9.836 21.3667 9.79349 21.3423 9.75776C21.1308 9.46341 20.7581 9.08532 20.184 8.95587C19.9901 8.91348 19.8546 8.75545 19.8546 8.57157C19.8537 8.36646 19.7826 3.5309 15.3906 2.03397L14.838 7.49247C14.8193 7.69496 14.6311 7.85428 14.4096 7.85517H14.3682C14.2522 7.8452 14.1481 7.79438 14.0748 7.71207C14.0009 7.63002 13.9667 7.52614 13.9785 7.41957L14.64 0.88557C14.182 0.82242 13.6421 0.78984 13.0362 0.78984C12.1334 0.78984 11.2852 0.86279 10.86 0.90627L11.5188 7.41957C11.5332 7.55975 11.4639 7.6977 11.3379 7.77957C11.2648 7.82707 11.1788 7.85218 11.0892 7.85218C11.0262 7.85218 10.9651 7.83986 10.9077 7.81557C10.7682 7.75619 10.6727 7.63204 10.6584 7.49157L10.1067 2.03307Z" fill="#1E79F7"/>
</g>
<defs>
<filter id="filter0_b_6_3542" x="-10" y="-10" width="45.499" height="49.9513" filterUnits="userSpaceOnUse" color-interpolation-filters="sRGB">
<feFlood flood-opacity="0" result="BackgroundImageFix"/>
<feGaussianBlur in="BackgroundImageFix" stdDeviation="5"/>
<feComposite in2="SourceAlpha" operator="in" result="effect1_backgroundBlur_6_3542"/>
<feBlend mode="normal" in="SourceGraphic" in2="effect1_backgroundBlur_6_3542" result="shape"/>
</filter>
</defs>
</svg>
