<svg width="48" height="31" viewBox="0 0 48 31" fill="none" xmlns="http://www.w3.org/2000/svg">
<path d="M2.23349 0.359973C1.00037 0.359973 0 1.35981 0 2.59346V28.2705C0 29.5039 1.00051 30.504 2.23349 30.504H45.7666C46.9997 30.504 48 29.5041 48 28.2705V2.59341C48 1.35996 46.9995 0.359924 45.7666 0.359924H2.23344L2.23349 0.359973ZM15.7395 3.98848C18.4794 3.98848 20.9957 4.94172 22.971 6.53397C21.3091 8.02096 20.0696 9.97461 19.458 12.189H20.4165C20.981 10.3622 22.0064 8.73578 23.358 7.44597C24.7096 8.73578 25.735 10.3622 26.2995 12.189H27.273C26.653 9.98628 25.4117 8.04429 23.751 6.567C25.7301 4.95453 28.2563 3.98844 31.008 3.98844C37.358 3.98844 42.5055 9.13653 42.5055 15.4875C42.5055 21.8384 37.358 26.9865 31.008 26.9865C28.2106 26.9865 25.6454 25.988 23.652 24.327C25.4352 22.7756 26.7498 20.6959 27.351 18.33H26.4134C25.8796 20.3157 24.8052 22.0819 23.358 23.463C21.9108 22.0819 20.8378 20.3157 20.304 18.33H19.4114C20.0161 20.6616 21.3136 22.7122 23.07 24.249C21.0802 25.8894 18.5251 26.8755 15.7394 26.8755C9.38952 26.8755 4.242 21.7521 4.242 15.432C4.242 9.11181 9.38952 3.98848 15.7395 3.98848ZM30.1455 12.072C28.764 12.072 27.42 13.2797 27.42 15.5475C27.42 17.0512 28.146 18.0435 29.574 18.0435C29.9778 18.0436 30.621 17.8785 30.621 17.8785L30.834 16.5645C30.834 16.5645 30.247 16.8615 29.844 16.8615C28.9951 16.8615 28.6545 16.2086 28.6545 15.507C28.6545 14.0837 29.3849 13.3004 30.198 13.3004C30.8077 13.3004 31.2975 13.6455 31.2975 13.6455L31.4925 12.3675C31.4925 12.3675 30.7676 12.072 30.1455 12.072ZM41.76 12.183L40.5585 12.186L40.3005 13.767C40.3005 13.767 39.8488 13.1535 39.1425 13.1535C38.0443 13.1535 37.1295 14.4581 37.1295 15.9585C37.1295 16.927 37.6164 17.8769 38.6145 17.8769C39.3325 17.8769 39.7305 17.3835 39.7305 17.3835L39.678 17.8049H40.845L41.76 12.183ZM7.34698 12.1995L6.39 17.8349H7.54349L8.27251 13.5855L8.38051 17.8349H9.20549L10.7445 13.5855L10.062 17.8349H11.2875L12.2325 12.1995H10.3365L9.156 15.6569L9.09451 12.1995H7.34702L7.34698 12.1995ZM19.398 12.5655C19.3719 12.5916 18.7005 16.4634 18.7005 16.9349C18.7005 17.6332 19.0919 17.945 19.6425 17.94C20.0371 17.9366 20.3426 17.8375 20.484 17.796C20.4988 17.792 20.5275 17.784 20.5275 17.784L20.676 16.776C20.5953 16.776 20.4763 16.8105 20.3715 16.8105C19.9604 16.8105 19.9148 16.5917 19.941 16.4295L20.2725 14.373H20.898L21.0495 13.2584H20.46L20.58 12.5655H19.398ZM33.3405 13.1325C32.5354 13.1325 31.9185 13.398 31.9185 13.398L31.7475 14.433C31.7475 14.433 32.257 14.2215 33.027 14.2215C33.4642 14.2215 33.7845 14.2715 33.7845 14.6355C33.7845 14.8565 33.7455 14.9385 33.7455 14.9385C33.7455 14.9385 33.3998 14.9085 33.24 14.9085C32.2247 14.9085 31.158 15.3534 31.158 16.692C31.158 17.7466 31.8583 17.988 32.292 17.988C33.1204 17.988 33.4776 17.4377 33.4965 17.436L33.4575 17.895H34.491L34.953 14.583C34.9532 13.1777 33.7562 13.1324 33.3405 13.1324V13.1325ZM13.953 13.1385C13.1449 13.1385 12.525 13.404 12.525 13.404L12.354 14.439C12.354 14.439 12.8652 14.2275 13.638 14.2275C14.0768 14.2275 14.3985 14.2777 14.3985 14.6415C14.3985 14.8625 14.3595 14.9445 14.3595 14.9445C14.3595 14.9445 14.0128 14.9145 13.8525 14.9145C12.8333 14.9145 11.763 15.3587 11.763 16.6965C11.763 17.7506 12.4647 17.9925 12.9 17.9925C13.7314 17.9925 14.0899 17.4421 14.109 17.4405L14.07 17.8995H15.108L15.5715 14.589C15.5715 13.1845 14.3702 13.1384 13.953 13.1384V13.1385ZM17.619 13.1385C16.7513 13.1385 15.87 13.4887 15.87 14.685C15.87 16.0404 17.3385 15.9035 17.3385 16.4744C17.3385 16.8556 16.9287 16.887 16.6125 16.887C16.0653 16.887 15.5733 16.6979 15.5715 16.707L15.414 17.742C15.4423 17.7508 15.747 17.8875 16.731 17.8875C16.9952 17.8875 18.5055 17.9546 18.5055 16.3815C18.5055 14.9108 17.1075 15.2023 17.1075 14.6115C17.1075 14.3173 17.3345 14.2245 17.751 14.2245C17.9164 14.2245 18.5535 14.277 18.5535 14.277L18.7005 13.2315C18.7005 13.2316 18.2893 13.1385 17.619 13.1385ZM23.043 13.1385C21.8372 13.1387 20.9445 14.4353 20.9445 15.9C20.9445 17.5905 22.063 17.9925 23.016 17.9925C23.8956 17.9925 24.2835 17.796 24.2835 17.796L24.4935 16.6425C24.4935 16.6425 23.8243 16.9365 23.22 16.9365C21.9324 16.9365 22.158 15.978 22.158 15.978H24.5955C24.5955 15.978 24.753 15.2033 24.753 14.8875C24.753 14.0993 24.3596 13.1385 23.043 13.1385ZM27.4095 13.188C26.8663 13.188 26.463 13.9185 26.463 13.9185L26.571 13.248H25.443L24.6855 17.877H25.932C26.285 15.9003 26.3495 14.2952 27.192 14.589C27.3395 13.8239 27.4825 13.5283 27.6435 13.2045C27.6435 13.2045 27.5679 13.188 27.4095 13.188ZM37.509 13.188C36.9658 13.188 36.5625 13.9185 36.5625 13.9185L36.6705 13.248H35.5425L34.785 17.877H36.03C36.3832 15.9003 36.4493 14.2952 37.2915 14.589C37.4392 13.8239 37.5822 13.5283 37.743 13.2045C37.743 13.2045 37.6673 13.188 37.509 13.188ZM23.037 14.1825C23.7218 14.1825 23.5965 14.9555 23.5965 15.018H22.248C22.248 14.9382 22.3755 14.1825 23.037 14.1825ZM39.3315 14.2725C39.7674 14.2723 39.9915 14.5668 39.9915 15.2595C39.9915 15.888 39.6745 16.728 39.018 16.728C38.5823 16.728 38.3775 16.3681 38.3775 15.804C38.3775 14.8815 38.7996 14.2725 39.3315 14.2725ZM33.342 15.8475C33.5198 15.8477 33.5566 15.865 33.5865 15.873C33.5822 15.8723 33.5814 15.8731 33.5985 15.876C33.621 16.0821 33.474 17.049 32.763 17.049C32.3964 17.049 32.3025 16.7575 32.3025 16.5855C32.3025 16.25 32.4771 15.8475 33.342 15.8475ZM13.9545 15.852C14.1564 15.8522 14.1785 15.8748 14.2125 15.8805C14.2351 16.0865 14.0874 17.052 13.374 17.052C13.006 17.052 12.9105 16.7619 12.9105 16.59C12.9105 16.2547 13.0862 15.852 13.9545 15.852Z" fill="#623CEA"/>
</svg>
