<svg width="48" height="32" viewBox="0 0 48 32" fill="none" xmlns="http://www.w3.org/2000/svg">
<path d="M1.92 0.927979C0.859824 0.927979 0 1.78756 0 2.84798V29.152C0 30.2123 0.860256 31.072 1.92 31.072H46.08C47.1402 31.072 48 30.2124 48 29.152V2.84798C48 1.78761 47.1397 0.927979 46.08 0.927979H1.92ZM28.668 9.91147C29.8362 9.91147 30.7725 10.1695 31.3695 10.4095L30.9615 12.976L30.6915 12.8395C30.1353 12.5995 29.4209 12.3686 28.4355 12.385C27.2558 12.385 26.7105 12.9112 26.7105 13.4035C26.7036 13.9583 27.3477 14.3241 28.401 14.872C30.1394 15.7173 30.9429 16.7422 30.9315 18.0895C30.9081 20.5479 28.852 22.1365 25.6845 22.1365C24.3332 22.1216 23.0313 21.8355 22.3275 21.505L22.7505 18.853L23.139 19.042C24.1286 19.4842 24.7694 19.663 25.9755 19.663C26.8416 19.663 27.7711 19.3004 27.7785 18.5065C27.7841 17.9881 27.39 17.6185 26.217 17.038C25.074 16.4714 23.5587 15.5223 23.5755 13.8205C23.5934 11.5184 25.6906 9.91147 28.668 9.91147ZM4.24498 10.288H9.10949C9.76454 10.3127 10.2934 10.5237 10.476 11.2345L11.5245 16.6465C11.5247 16.647 11.5243 16.6489 11.5245 16.6495L11.8395 18.271L14.793 10.288H17.988L13.239 21.973L10.047 21.976L7.506 12.547C9.0179 13.3479 10.3051 14.2747 11.0505 15.55C10.8583 15.1464 10.6051 14.6909 10.281 14.242C9.90365 13.7192 9.08866 13.0441 8.748 12.757C7.56096 11.7563 5.94888 10.9481 4.20749 10.5205L4.24498 10.288ZM19.2585 10.3015H22.383L20.4285 21.9685H17.304L19.2585 10.3015ZM36.906 10.3015H39.273L41.751 21.9685H38.91C38.91 21.9685 38.6281 20.6281 38.5365 20.2195C38.09 20.2195 34.9669 20.215 34.6155 20.215C34.4966 20.5308 33.9705 21.9684 33.9705 21.9684H30.756L35.3025 11.2705C35.6244 10.5103 36.1731 10.3015 36.906 10.3015ZM37.1385 13.4395C36.9848 13.8734 36.7171 14.5742 36.735 14.5435C36.735 14.5435 35.7732 17.1086 35.5215 17.7745L38.049 17.773C37.9272 17.1945 37.344 14.4356 37.344 14.4356L37.1385 13.4396V13.4395Z" fill="#623CEA"/>
</svg>
