<svg width="48" height="48" viewBox="0 0 48 48" fill="none" xmlns="http://www.w3.org/2000/svg">
<path d="M9.41186 0.0120239C4.24145 0.0120239 0.00976562 4.24361 0.00976562 9.41412V38.5905C0.00976562 43.7609 4.24135 47.991 9.41186 47.991H38.5882C43.7587 47.991 47.9888 43.761 47.9888 38.5905V9.41412C47.9888 4.2437 43.7587 0.0120239 38.5882 0.0120239H9.41186ZM11.7766 7.92953C14.2557 7.92953 15.7828 9.55702 15.8299 11.6963C15.8299 13.7884 14.2556 15.4616 11.7287 15.4616H11.6822C9.25025 15.4616 7.67839 13.7885 7.67839 11.6963C7.67839 9.55706 9.29781 7.92953 11.7766 7.92953H11.7766ZM33.1405 17.9284C37.9083 17.9284 41.4824 21.0447 41.4824 27.7413V40.2429H34.2366V28.5795C34.2366 25.6486 33.188 23.649 30.5658 23.649C28.564 23.649 27.3708 24.9968 26.8469 26.2987C26.6556 26.7645 26.6085 27.4151 26.6085 28.0667V40.2429H19.3628C19.3628 40.2429 19.4579 20.4855 19.3628 18.4397H26.61V21.5273C27.5729 20.0417 29.2952 17.9284 33.1405 17.9284V17.9284ZM8.10578 18.4413H15.3515V40.243H8.10578V18.4413Z" fill="#623CEA"/>
</svg>
