<svg width="48" height="48" viewBox="0 0 48 48" fill="none" xmlns="http://www.w3.org/2000/svg">
<path d="M48 5.68574C46.6634 8.13333 45.0235 10.2198 43.0804 11.9451C43.0996 12.4078 43.1092 12.9308 43.1092 13.5141C43.1092 16.7548 42.7254 19.9995 41.9578 23.248C41.1902 26.4966 40.0177 29.6061 38.4402 32.5765C36.8628 35.5469 34.9837 38.1784 32.8031 40.471C30.6225 42.7636 28.0013 44.5916 24.9395 45.955C21.8777 47.3184 18.5963 48 15.0953 48C9.63133 48 4.59957 46.1842 0 42.5524C0.816369 42.6642 1.59934 42.7201 2.3489 42.7201C6.91358 42.7201 10.9906 40.9893 14.5799 37.5276C12.4516 37.4796 10.5455 36.6731 8.8617 35.108C7.17788 33.543 6.01912 31.5432 5.38541 29.1086C6.01179 29.2555 6.63 29.3289 7.24006 29.3289C8.11819 29.3289 8.98226 29.1879 9.83226 28.9059C7.56095 28.3459 5.67671 26.9533 4.17953 24.728C2.6824 22.5028 1.93384 19.9344 1.93384 17.0229V16.8729C3.32798 17.8231 4.81505 18.3286 6.39504 18.3893C5.04954 17.285 3.98276 15.845 3.19469 14.0693C2.40658 12.2936 2.01252 10.372 2.01252 8.30443C2.01252 6.12386 2.45639 4.09333 3.34411 2.21285C5.81411 5.94427 8.80704 8.92654 12.3229 11.1597C15.8388 13.3928 19.6107 14.633 23.6386 14.8803C23.4668 13.999 23.3807 13.0792 23.3804 12.1211C23.3804 8.77558 24.3421 5.91904 26.2655 3.55142C28.1889 1.18381 30.5094 0 33.227 0C36.0722 0 38.4688 1.27538 40.4167 3.82613C42.6422 3.28344 44.7261 2.30186 46.6682 0.881376C45.92 3.78026 44.4782 6.01654 42.3428 7.59024C44.3054 7.30314 46.1911 6.6683 48 5.68574H48Z" fill="#623CEA"/>
</svg>
