<svg width="48" height="48" viewBox="0 0 48 48" fill="none" xmlns="http://www.w3.org/2000/svg">
<path d="M4.41765 0C1.97759 0 4.79684e-05 1.26259 4.79684e-05 4.42051V8.21102C0.174269 8.04302 0.375977 7.8563 0.56219 7.69651C4.53412 4.40664 8.89148 3.85661 12.5453 3.78902H27.2731L23.3607 6.94805H19.0915C20.8019 8.43226 23.3532 11.0855 23.3532 15.8115C23.3532 20.9886 20.6271 23.4417 17.7004 25.7475C16.7947 26.6551 15.7502 27.6379 15.7502 29.1795C15.7502 30.7174 16.7945 31.5576 17.5595 32.1886L20.0704 34.1431C23.134 36.7332 27.1397 39.7324 27.1397 44.5621C27.1397 45.8556 26.9995 47.0173 26.5791 48.0001H43.5509C45.991 48.0001 47.9685 46.6528 47.9685 44.2111V16.344H39.1318V25.2631H35.3453V16.344H26.5086V12.6315H35.3453V3.78902H39.1318V12.6315H47.9685V4.42051C47.9685 1.26264 45.991 0 43.5509 0H4.41765ZM47.9685 12.6315V16.344H48V12.6315H47.9685ZM8.97317 6.156C7.15982 6.156 5.21105 7.06493 4.09387 8.46451C2.90919 9.93485 2.72677 11.8206 2.72677 13.644C2.72677 18.3297 5.18683 25.263 11.1797 25.263C12.9204 25.263 14.706 24.8205 15.8521 23.5125C17.1599 22.0138 17.672 20.0406 17.672 19.032C17.672 13.9926 14.7534 6.156 8.97317 6.156ZM4.79684e-05 25.263V37.6575C3.15584 35.1312 8.62861 35.5852 11.2921 35.4045C10.3151 34.1433 9.20097 32.815 9.20097 30.648C9.20097 29.4581 9.55023 28.7571 9.898 27.9165C9.12988 27.9853 8.36618 28.0575 7.66747 28.0575C4.50596 28.0575 1.90991 26.8521 0 25.263H4.79684e-05ZM12.0611 37.3635C11.4312 37.3635 7.66689 37.5047 4.74144 38.4855C3.73473 38.8537 1.43785 39.7275 4.79684e-05 41.6835V44.211C4.79684e-05 46.6526 1.97755 48 4.41765 48H22.5003C22.6044 47.645 22.8002 47.4299 22.7926 46.737C22.7534 43.1616 18.9571 41.2161 13.6591 37.4355C13.1037 37.3635 12.7542 37.3635 12.0611 37.3635Z" fill="#623CEA"/>
</svg>
